<svg xmlns="http://www.w3.org/2000/svg" xml:space="preserve" id="Layer_1" width="48.6" height="34.9" x="0" y="0" style="enable-background:new 0 0 48.6 34.9" version="1.1"><style>.st0{fill:#fff}</style><path d="m21.9 4.2-9.6 3.6 14.2 7.6v15.4l9.2-3.6V13.7l2.1-.8-15.9-8.7zm11.8 10.5v11.1l-5.1 2V14.2l-11.3-6 4.5-1.7L31.9 12l1.9.9v1.8z" class="st0"/><path d="m43.7 10.6 4.9-1.9L32.4 0 0 12.5l4.9 2.6-4.9 2 4.9 2.6-4.9 2 4.9 2.6L0 26.2l16.3 8.7 32.4-12.5-4.9-2.6 4.9-1.9-4.9-2.6 4.9-1.9-5-2.8zM41.5 16l2.8 1.5-10 3.9v2l7.3-2.8 2.8 1.5-10 3.9v1.8h-4.7l-13.2 5.1-12-6.4 2.7-1 9.2 4.9 12-4.7v-2l-11.9 4.6-12-6.4 2.7-1 9.2 4.9 12-4.7v-2l-11.9 4.6-12-6.4 2.7-1 9.2 4.9 12-4.6v-1.9l-11.8 4.6-12-6.4L32.2 2l12 6.4-10.5 4.1h.1v1.9l7.6-3 2.8 1.5-10 3.9v2l7.3-2.8z" class="st0"/></svg>